<mxfile host="app.diagrams.net" agent="Mozilla/5.0 (Macintosh; Intel Mac OS X 10_15_7) AppleWebKit/537.36 (KHTML, like Gecko) Chrome/127.0.0.0 Safari/537.36" version="24.7.7">
  <diagram name="Page-1" id="RSgsWA-u5n34Z5c_8NsW">
    <mxGraphModel dx="2561" dy="1276" grid="1" gridSize="10" guides="1" tooltips="1" connect="1" arrows="1" fold="1" page="1" pageScale="1" pageWidth="850" pageHeight="1100" math="0" shadow="0">
      <root>
        <mxCell id="0" />
        <mxCell id="1" parent="0" />
        <mxCell id="gft17bMY0GECLjVTUZjr-347" value="" style="endArrow=none;dashed=1;html=1;rounded=0;exitX=1;exitY=0;exitDx=0;exitDy=0;entryX=1;entryY=0;entryDx=0;entryDy=0;" edge="1" parent="1" source="gft17bMY0GECLjVTUZjr-1" target="gft17bMY0GECLjVTUZjr-344">
          <mxGeometry width="50" height="50" relative="1" as="geometry">
            <mxPoint x="-150" y="480" as="sourcePoint" />
            <mxPoint x="10" y="239" as="targetPoint" />
          </mxGeometry>
        </mxCell>
        <mxCell id="gft17bMY0GECLjVTUZjr-349" value="" style="endArrow=none;dashed=1;html=1;rounded=0;exitX=1;exitY=0;exitDx=0;exitDy=0;entryX=0.992;entryY=0.996;entryDx=0;entryDy=0;entryPerimeter=0;" edge="1" parent="1" target="gft17bMY0GECLjVTUZjr-344">
          <mxGeometry width="50" height="50" relative="1" as="geometry">
            <mxPoint x="-160" y="679.5" as="sourcePoint" />
            <mxPoint x="640" y="358.5" as="targetPoint" />
          </mxGeometry>
        </mxCell>
        <mxCell id="gft17bMY0GECLjVTUZjr-344" value="" style="rounded=0;whiteSpace=wrap;html=1;fillColor=#d5e8d4;strokeColor=#82b366;align=center;strokeWidth=2;" vertex="1" parent="1">
          <mxGeometry x="-80" y="239" width="720" height="761" as="geometry" />
        </mxCell>
        <mxCell id="gft17bMY0GECLjVTUZjr-1" value="" style="rounded=0;whiteSpace=wrap;html=1;fillColor=#d5e8d4;strokeColor=#82b366;align=center;strokeWidth=2;" vertex="1" parent="1">
          <mxGeometry x="-250" y="559.5" width="90" height="120" as="geometry" />
        </mxCell>
        <mxCell id="gft17bMY0GECLjVTUZjr-2" value="BANK 0" style="text;html=1;align=center;verticalAlign=middle;whiteSpace=wrap;rounded=0;" vertex="1" parent="1">
          <mxGeometry x="-250" y="609.5" width="90" height="20" as="geometry" />
        </mxCell>
        <mxCell id="gft17bMY0GECLjVTUZjr-4" value="" style="rounded=0;whiteSpace=wrap;html=1;strokeWidth=2;" vertex="1" parent="1">
          <mxGeometry x="280" y="280" width="20" height="20" as="geometry" />
        </mxCell>
        <mxCell id="gft17bMY0GECLjVTUZjr-5" value="" style="rounded=0;whiteSpace=wrap;html=1;strokeWidth=2;" vertex="1" parent="1">
          <mxGeometry x="300" y="280" width="20" height="20" as="geometry" />
        </mxCell>
        <mxCell id="gft17bMY0GECLjVTUZjr-6" value="" style="rounded=0;whiteSpace=wrap;html=1;strokeWidth=2;" vertex="1" parent="1">
          <mxGeometry x="340" y="280" width="20" height="20" as="geometry" />
        </mxCell>
        <mxCell id="gft17bMY0GECLjVTUZjr-7" value="" style="rounded=0;whiteSpace=wrap;html=1;strokeWidth=2;" vertex="1" parent="1">
          <mxGeometry x="320" y="280" width="20" height="20" as="geometry" />
        </mxCell>
        <mxCell id="gft17bMY0GECLjVTUZjr-12" value="" style="rounded=0;whiteSpace=wrap;html=1;strokeWidth=2;" vertex="1" parent="1">
          <mxGeometry x="420" y="280" width="20" height="20" as="geometry" />
        </mxCell>
        <mxCell id="gft17bMY0GECLjVTUZjr-13" value="" style="rounded=0;whiteSpace=wrap;html=1;strokeWidth=2;" vertex="1" parent="1">
          <mxGeometry x="400" y="280" width="20" height="20" as="geometry" />
        </mxCell>
        <mxCell id="gft17bMY0GECLjVTUZjr-14" value="" style="rounded=0;whiteSpace=wrap;html=1;strokeWidth=2;" vertex="1" parent="1">
          <mxGeometry x="360" y="280" width="20" height="20" as="geometry" />
        </mxCell>
        <mxCell id="gft17bMY0GECLjVTUZjr-15" value="" style="rounded=0;whiteSpace=wrap;html=1;strokeWidth=2;" vertex="1" parent="1">
          <mxGeometry x="380" y="280" width="20" height="20" as="geometry" />
        </mxCell>
        <mxCell id="gft17bMY0GECLjVTUZjr-16" value="" style="rounded=0;whiteSpace=wrap;html=1;strokeWidth=2;" vertex="1" parent="1">
          <mxGeometry x="440" y="280" width="20" height="20" as="geometry" />
        </mxCell>
        <mxCell id="gft17bMY0GECLjVTUZjr-17" value="" style="rounded=0;whiteSpace=wrap;html=1;strokeWidth=2;" vertex="1" parent="1">
          <mxGeometry x="460" y="280" width="20" height="20" as="geometry" />
        </mxCell>
        <mxCell id="gft17bMY0GECLjVTUZjr-18" value="" style="rounded=0;whiteSpace=wrap;html=1;strokeWidth=2;" vertex="1" parent="1">
          <mxGeometry x="500" y="280" width="20" height="20" as="geometry" />
        </mxCell>
        <mxCell id="gft17bMY0GECLjVTUZjr-19" value="" style="rounded=0;whiteSpace=wrap;html=1;strokeWidth=2;" vertex="1" parent="1">
          <mxGeometry x="480" y="280" width="20" height="20" as="geometry" />
        </mxCell>
        <mxCell id="gft17bMY0GECLjVTUZjr-20" value="" style="rounded=0;whiteSpace=wrap;html=1;strokeWidth=2;" vertex="1" parent="1">
          <mxGeometry x="580" y="280" width="20" height="20" as="geometry" />
        </mxCell>
        <mxCell id="gft17bMY0GECLjVTUZjr-21" value="" style="rounded=0;whiteSpace=wrap;html=1;strokeWidth=2;" vertex="1" parent="1">
          <mxGeometry x="560" y="280" width="20" height="20" as="geometry" />
        </mxCell>
        <mxCell id="gft17bMY0GECLjVTUZjr-22" value="" style="rounded=0;whiteSpace=wrap;html=1;strokeWidth=2;" vertex="1" parent="1">
          <mxGeometry x="520" y="280" width="20" height="20" as="geometry" />
        </mxCell>
        <mxCell id="gft17bMY0GECLjVTUZjr-23" value="" style="rounded=0;whiteSpace=wrap;html=1;strokeWidth=2;" vertex="1" parent="1">
          <mxGeometry x="540" y="280" width="20" height="20" as="geometry" />
        </mxCell>
        <mxCell id="gft17bMY0GECLjVTUZjr-24" value="" style="rounded=0;whiteSpace=wrap;html=1;strokeWidth=2;" vertex="1" parent="1">
          <mxGeometry x="280" y="300" width="20" height="20" as="geometry" />
        </mxCell>
        <mxCell id="gft17bMY0GECLjVTUZjr-25" value="" style="rounded=0;whiteSpace=wrap;html=1;strokeWidth=2;" vertex="1" parent="1">
          <mxGeometry x="300" y="300" width="20" height="20" as="geometry" />
        </mxCell>
        <mxCell id="gft17bMY0GECLjVTUZjr-26" value="" style="rounded=0;whiteSpace=wrap;html=1;strokeWidth=2;" vertex="1" parent="1">
          <mxGeometry x="340" y="300" width="20" height="20" as="geometry" />
        </mxCell>
        <mxCell id="gft17bMY0GECLjVTUZjr-27" value="" style="rounded=0;whiteSpace=wrap;html=1;strokeWidth=2;" vertex="1" parent="1">
          <mxGeometry x="320" y="300" width="20" height="20" as="geometry" />
        </mxCell>
        <mxCell id="gft17bMY0GECLjVTUZjr-28" value="" style="rounded=0;whiteSpace=wrap;html=1;strokeWidth=2;" vertex="1" parent="1">
          <mxGeometry x="420" y="300" width="20" height="20" as="geometry" />
        </mxCell>
        <mxCell id="gft17bMY0GECLjVTUZjr-29" value="" style="rounded=0;whiteSpace=wrap;html=1;strokeWidth=2;" vertex="1" parent="1">
          <mxGeometry x="400" y="300" width="20" height="20" as="geometry" />
        </mxCell>
        <mxCell id="gft17bMY0GECLjVTUZjr-30" value="" style="rounded=0;whiteSpace=wrap;html=1;strokeWidth=2;" vertex="1" parent="1">
          <mxGeometry x="360" y="300" width="20" height="20" as="geometry" />
        </mxCell>
        <mxCell id="gft17bMY0GECLjVTUZjr-31" value="" style="rounded=0;whiteSpace=wrap;html=1;strokeWidth=2;" vertex="1" parent="1">
          <mxGeometry x="380" y="300" width="20" height="20" as="geometry" />
        </mxCell>
        <mxCell id="gft17bMY0GECLjVTUZjr-32" value="" style="rounded=0;whiteSpace=wrap;html=1;strokeWidth=2;" vertex="1" parent="1">
          <mxGeometry x="440" y="300" width="20" height="20" as="geometry" />
        </mxCell>
        <mxCell id="gft17bMY0GECLjVTUZjr-33" value="" style="rounded=0;whiteSpace=wrap;html=1;strokeWidth=2;" vertex="1" parent="1">
          <mxGeometry x="460" y="300" width="20" height="20" as="geometry" />
        </mxCell>
        <mxCell id="gft17bMY0GECLjVTUZjr-34" value="" style="rounded=0;whiteSpace=wrap;html=1;strokeWidth=2;" vertex="1" parent="1">
          <mxGeometry x="500" y="300" width="20" height="20" as="geometry" />
        </mxCell>
        <mxCell id="gft17bMY0GECLjVTUZjr-35" value="" style="rounded=0;whiteSpace=wrap;html=1;strokeWidth=2;" vertex="1" parent="1">
          <mxGeometry x="480" y="300" width="20" height="20" as="geometry" />
        </mxCell>
        <mxCell id="gft17bMY0GECLjVTUZjr-36" value="" style="rounded=0;whiteSpace=wrap;html=1;strokeWidth=2;" vertex="1" parent="1">
          <mxGeometry x="580" y="300" width="20" height="20" as="geometry" />
        </mxCell>
        <mxCell id="gft17bMY0GECLjVTUZjr-37" value="" style="rounded=0;whiteSpace=wrap;html=1;strokeWidth=2;" vertex="1" parent="1">
          <mxGeometry x="560" y="300" width="20" height="20" as="geometry" />
        </mxCell>
        <mxCell id="gft17bMY0GECLjVTUZjr-38" value="" style="rounded=0;whiteSpace=wrap;html=1;strokeWidth=2;" vertex="1" parent="1">
          <mxGeometry x="520" y="300" width="20" height="20" as="geometry" />
        </mxCell>
        <mxCell id="gft17bMY0GECLjVTUZjr-39" value="" style="rounded=0;whiteSpace=wrap;html=1;strokeWidth=2;" vertex="1" parent="1">
          <mxGeometry x="540" y="300" width="20" height="20" as="geometry" />
        </mxCell>
        <mxCell id="gft17bMY0GECLjVTUZjr-104" value="" style="rounded=0;whiteSpace=wrap;html=1;strokeWidth=2;" vertex="1" parent="1">
          <mxGeometry x="280" y="319" width="20" height="20" as="geometry" />
        </mxCell>
        <mxCell id="gft17bMY0GECLjVTUZjr-105" value="" style="rounded=0;whiteSpace=wrap;html=1;strokeWidth=2;" vertex="1" parent="1">
          <mxGeometry x="300" y="319" width="20" height="20" as="geometry" />
        </mxCell>
        <mxCell id="gft17bMY0GECLjVTUZjr-106" value="" style="rounded=0;whiteSpace=wrap;html=1;strokeWidth=2;" vertex="1" parent="1">
          <mxGeometry x="340" y="319" width="20" height="20" as="geometry" />
        </mxCell>
        <mxCell id="gft17bMY0GECLjVTUZjr-107" value="" style="rounded=0;whiteSpace=wrap;html=1;strokeWidth=2;" vertex="1" parent="1">
          <mxGeometry x="320" y="319" width="20" height="20" as="geometry" />
        </mxCell>
        <mxCell id="gft17bMY0GECLjVTUZjr-108" value="" style="rounded=0;whiteSpace=wrap;html=1;strokeWidth=2;" vertex="1" parent="1">
          <mxGeometry x="420" y="319" width="20" height="20" as="geometry" />
        </mxCell>
        <mxCell id="gft17bMY0GECLjVTUZjr-109" value="" style="rounded=0;whiteSpace=wrap;html=1;strokeWidth=2;" vertex="1" parent="1">
          <mxGeometry x="400" y="319" width="20" height="20" as="geometry" />
        </mxCell>
        <mxCell id="gft17bMY0GECLjVTUZjr-110" value="" style="rounded=0;whiteSpace=wrap;html=1;strokeWidth=2;" vertex="1" parent="1">
          <mxGeometry x="360" y="319" width="20" height="20" as="geometry" />
        </mxCell>
        <mxCell id="gft17bMY0GECLjVTUZjr-111" value="" style="rounded=0;whiteSpace=wrap;html=1;strokeWidth=2;" vertex="1" parent="1">
          <mxGeometry x="380" y="319" width="20" height="20" as="geometry" />
        </mxCell>
        <mxCell id="gft17bMY0GECLjVTUZjr-112" value="" style="rounded=0;whiteSpace=wrap;html=1;strokeWidth=2;" vertex="1" parent="1">
          <mxGeometry x="440" y="319" width="20" height="20" as="geometry" />
        </mxCell>
        <mxCell id="gft17bMY0GECLjVTUZjr-113" value="" style="rounded=0;whiteSpace=wrap;html=1;strokeWidth=2;" vertex="1" parent="1">
          <mxGeometry x="460" y="319" width="20" height="20" as="geometry" />
        </mxCell>
        <mxCell id="gft17bMY0GECLjVTUZjr-114" value="" style="rounded=0;whiteSpace=wrap;html=1;strokeWidth=2;" vertex="1" parent="1">
          <mxGeometry x="500" y="319" width="20" height="20" as="geometry" />
        </mxCell>
        <mxCell id="gft17bMY0GECLjVTUZjr-115" value="" style="rounded=0;whiteSpace=wrap;html=1;strokeWidth=2;" vertex="1" parent="1">
          <mxGeometry x="480" y="319" width="20" height="20" as="geometry" />
        </mxCell>
        <mxCell id="gft17bMY0GECLjVTUZjr-116" value="" style="rounded=0;whiteSpace=wrap;html=1;strokeWidth=2;" vertex="1" parent="1">
          <mxGeometry x="580" y="319" width="20" height="20" as="geometry" />
        </mxCell>
        <mxCell id="gft17bMY0GECLjVTUZjr-117" value="" style="rounded=0;whiteSpace=wrap;html=1;strokeWidth=2;" vertex="1" parent="1">
          <mxGeometry x="560" y="319" width="20" height="20" as="geometry" />
        </mxCell>
        <mxCell id="gft17bMY0GECLjVTUZjr-118" value="" style="rounded=0;whiteSpace=wrap;html=1;strokeWidth=2;" vertex="1" parent="1">
          <mxGeometry x="520" y="319" width="20" height="20" as="geometry" />
        </mxCell>
        <mxCell id="gft17bMY0GECLjVTUZjr-119" value="" style="rounded=0;whiteSpace=wrap;html=1;strokeWidth=2;" vertex="1" parent="1">
          <mxGeometry x="540" y="319" width="20" height="20" as="geometry" />
        </mxCell>
        <mxCell id="gft17bMY0GECLjVTUZjr-120" value="" style="rounded=0;whiteSpace=wrap;html=1;strokeWidth=2;" vertex="1" parent="1">
          <mxGeometry x="280" y="339" width="20" height="20" as="geometry" />
        </mxCell>
        <mxCell id="gft17bMY0GECLjVTUZjr-121" value="" style="rounded=0;whiteSpace=wrap;html=1;strokeWidth=2;" vertex="1" parent="1">
          <mxGeometry x="300" y="339" width="20" height="20" as="geometry" />
        </mxCell>
        <mxCell id="gft17bMY0GECLjVTUZjr-122" value="" style="rounded=0;whiteSpace=wrap;html=1;strokeWidth=2;" vertex="1" parent="1">
          <mxGeometry x="340" y="339" width="20" height="20" as="geometry" />
        </mxCell>
        <mxCell id="gft17bMY0GECLjVTUZjr-123" value="" style="rounded=0;whiteSpace=wrap;html=1;strokeWidth=2;" vertex="1" parent="1">
          <mxGeometry x="320" y="339" width="20" height="20" as="geometry" />
        </mxCell>
        <mxCell id="gft17bMY0GECLjVTUZjr-124" value="" style="rounded=0;whiteSpace=wrap;html=1;strokeWidth=2;" vertex="1" parent="1">
          <mxGeometry x="420" y="339" width="20" height="20" as="geometry" />
        </mxCell>
        <mxCell id="gft17bMY0GECLjVTUZjr-125" value="" style="rounded=0;whiteSpace=wrap;html=1;strokeWidth=2;" vertex="1" parent="1">
          <mxGeometry x="400" y="339" width="20" height="20" as="geometry" />
        </mxCell>
        <mxCell id="gft17bMY0GECLjVTUZjr-126" value="" style="rounded=0;whiteSpace=wrap;html=1;strokeWidth=2;" vertex="1" parent="1">
          <mxGeometry x="360" y="339" width="20" height="20" as="geometry" />
        </mxCell>
        <mxCell id="gft17bMY0GECLjVTUZjr-127" value="" style="rounded=0;whiteSpace=wrap;html=1;strokeWidth=2;" vertex="1" parent="1">
          <mxGeometry x="380" y="339" width="20" height="20" as="geometry" />
        </mxCell>
        <mxCell id="gft17bMY0GECLjVTUZjr-128" value="" style="rounded=0;whiteSpace=wrap;html=1;strokeWidth=2;" vertex="1" parent="1">
          <mxGeometry x="440" y="339" width="20" height="20" as="geometry" />
        </mxCell>
        <mxCell id="gft17bMY0GECLjVTUZjr-129" value="" style="rounded=0;whiteSpace=wrap;html=1;strokeWidth=2;" vertex="1" parent="1">
          <mxGeometry x="460" y="339" width="20" height="20" as="geometry" />
        </mxCell>
        <mxCell id="gft17bMY0GECLjVTUZjr-130" value="" style="rounded=0;whiteSpace=wrap;html=1;strokeWidth=2;" vertex="1" parent="1">
          <mxGeometry x="500" y="339" width="20" height="20" as="geometry" />
        </mxCell>
        <mxCell id="gft17bMY0GECLjVTUZjr-131" value="" style="rounded=0;whiteSpace=wrap;html=1;strokeWidth=2;" vertex="1" parent="1">
          <mxGeometry x="480" y="339" width="20" height="20" as="geometry" />
        </mxCell>
        <mxCell id="gft17bMY0GECLjVTUZjr-132" value="" style="rounded=0;whiteSpace=wrap;html=1;strokeWidth=2;" vertex="1" parent="1">
          <mxGeometry x="580" y="339" width="20" height="20" as="geometry" />
        </mxCell>
        <mxCell id="gft17bMY0GECLjVTUZjr-133" value="" style="rounded=0;whiteSpace=wrap;html=1;strokeWidth=2;" vertex="1" parent="1">
          <mxGeometry x="560" y="339" width="20" height="20" as="geometry" />
        </mxCell>
        <mxCell id="gft17bMY0GECLjVTUZjr-134" value="" style="rounded=0;whiteSpace=wrap;html=1;strokeWidth=2;" vertex="1" parent="1">
          <mxGeometry x="520" y="339" width="20" height="20" as="geometry" />
        </mxCell>
        <mxCell id="gft17bMY0GECLjVTUZjr-135" value="" style="rounded=0;whiteSpace=wrap;html=1;strokeWidth=2;" vertex="1" parent="1">
          <mxGeometry x="540" y="339" width="20" height="20" as="geometry" />
        </mxCell>
        <mxCell id="gft17bMY0GECLjVTUZjr-136" value="" style="rounded=0;whiteSpace=wrap;html=1;strokeWidth=2;" vertex="1" parent="1">
          <mxGeometry x="280" y="359" width="20" height="20" as="geometry" />
        </mxCell>
        <mxCell id="gft17bMY0GECLjVTUZjr-137" value="" style="rounded=0;whiteSpace=wrap;html=1;strokeWidth=2;" vertex="1" parent="1">
          <mxGeometry x="300" y="359" width="20" height="20" as="geometry" />
        </mxCell>
        <mxCell id="gft17bMY0GECLjVTUZjr-138" value="" style="rounded=0;whiteSpace=wrap;html=1;strokeWidth=2;" vertex="1" parent="1">
          <mxGeometry x="340" y="359" width="20" height="20" as="geometry" />
        </mxCell>
        <mxCell id="gft17bMY0GECLjVTUZjr-139" value="" style="rounded=0;whiteSpace=wrap;html=1;strokeWidth=2;" vertex="1" parent="1">
          <mxGeometry x="320" y="359" width="20" height="20" as="geometry" />
        </mxCell>
        <mxCell id="gft17bMY0GECLjVTUZjr-140" value="" style="rounded=0;whiteSpace=wrap;html=1;strokeWidth=2;" vertex="1" parent="1">
          <mxGeometry x="420" y="359" width="20" height="20" as="geometry" />
        </mxCell>
        <mxCell id="gft17bMY0GECLjVTUZjr-141" value="" style="rounded=0;whiteSpace=wrap;html=1;strokeWidth=2;" vertex="1" parent="1">
          <mxGeometry x="400" y="359" width="20" height="20" as="geometry" />
        </mxCell>
        <mxCell id="gft17bMY0GECLjVTUZjr-142" value="" style="rounded=0;whiteSpace=wrap;html=1;strokeWidth=2;" vertex="1" parent="1">
          <mxGeometry x="360" y="359" width="20" height="20" as="geometry" />
        </mxCell>
        <mxCell id="gft17bMY0GECLjVTUZjr-143" value="" style="rounded=0;whiteSpace=wrap;html=1;strokeWidth=2;" vertex="1" parent="1">
          <mxGeometry x="380" y="359" width="20" height="20" as="geometry" />
        </mxCell>
        <mxCell id="gft17bMY0GECLjVTUZjr-144" value="" style="rounded=0;whiteSpace=wrap;html=1;strokeWidth=2;" vertex="1" parent="1">
          <mxGeometry x="440" y="359" width="20" height="20" as="geometry" />
        </mxCell>
        <mxCell id="gft17bMY0GECLjVTUZjr-145" value="" style="rounded=0;whiteSpace=wrap;html=1;strokeWidth=2;" vertex="1" parent="1">
          <mxGeometry x="460" y="359" width="20" height="20" as="geometry" />
        </mxCell>
        <mxCell id="gft17bMY0GECLjVTUZjr-146" value="" style="rounded=0;whiteSpace=wrap;html=1;strokeWidth=2;" vertex="1" parent="1">
          <mxGeometry x="500" y="359" width="20" height="20" as="geometry" />
        </mxCell>
        <mxCell id="gft17bMY0GECLjVTUZjr-147" value="" style="rounded=0;whiteSpace=wrap;html=1;strokeWidth=2;" vertex="1" parent="1">
          <mxGeometry x="480" y="359" width="20" height="20" as="geometry" />
        </mxCell>
        <mxCell id="gft17bMY0GECLjVTUZjr-148" value="" style="rounded=0;whiteSpace=wrap;html=1;strokeWidth=2;" vertex="1" parent="1">
          <mxGeometry x="580" y="359" width="20" height="20" as="geometry" />
        </mxCell>
        <mxCell id="gft17bMY0GECLjVTUZjr-149" value="" style="rounded=0;whiteSpace=wrap;html=1;strokeWidth=2;" vertex="1" parent="1">
          <mxGeometry x="560" y="359" width="20" height="20" as="geometry" />
        </mxCell>
        <mxCell id="gft17bMY0GECLjVTUZjr-150" value="" style="rounded=0;whiteSpace=wrap;html=1;strokeWidth=2;" vertex="1" parent="1">
          <mxGeometry x="520" y="359" width="20" height="20" as="geometry" />
        </mxCell>
        <mxCell id="gft17bMY0GECLjVTUZjr-151" value="" style="rounded=0;whiteSpace=wrap;html=1;strokeWidth=2;" vertex="1" parent="1">
          <mxGeometry x="540" y="359" width="20" height="20" as="geometry" />
        </mxCell>
        <mxCell id="gft17bMY0GECLjVTUZjr-152" value="" style="rounded=0;whiteSpace=wrap;html=1;strokeWidth=2;" vertex="1" parent="1">
          <mxGeometry x="280" y="379" width="20" height="20" as="geometry" />
        </mxCell>
        <mxCell id="gft17bMY0GECLjVTUZjr-153" value="" style="rounded=0;whiteSpace=wrap;html=1;strokeWidth=2;" vertex="1" parent="1">
          <mxGeometry x="300" y="379" width="20" height="20" as="geometry" />
        </mxCell>
        <mxCell id="gft17bMY0GECLjVTUZjr-154" value="" style="rounded=0;whiteSpace=wrap;html=1;strokeWidth=2;" vertex="1" parent="1">
          <mxGeometry x="340" y="379" width="20" height="20" as="geometry" />
        </mxCell>
        <mxCell id="gft17bMY0GECLjVTUZjr-155" value="" style="rounded=0;whiteSpace=wrap;html=1;strokeWidth=2;" vertex="1" parent="1">
          <mxGeometry x="320" y="379" width="20" height="20" as="geometry" />
        </mxCell>
        <mxCell id="gft17bMY0GECLjVTUZjr-156" value="" style="rounded=0;whiteSpace=wrap;html=1;strokeWidth=2;" vertex="1" parent="1">
          <mxGeometry x="420" y="379" width="20" height="20" as="geometry" />
        </mxCell>
        <mxCell id="gft17bMY0GECLjVTUZjr-157" value="" style="rounded=0;whiteSpace=wrap;html=1;strokeWidth=2;" vertex="1" parent="1">
          <mxGeometry x="400" y="379" width="20" height="20" as="geometry" />
        </mxCell>
        <mxCell id="gft17bMY0GECLjVTUZjr-158" value="" style="rounded=0;whiteSpace=wrap;html=1;strokeWidth=2;" vertex="1" parent="1">
          <mxGeometry x="360" y="379" width="20" height="20" as="geometry" />
        </mxCell>
        <mxCell id="gft17bMY0GECLjVTUZjr-159" value="" style="rounded=0;whiteSpace=wrap;html=1;strokeWidth=2;" vertex="1" parent="1">
          <mxGeometry x="380" y="379" width="20" height="20" as="geometry" />
        </mxCell>
        <mxCell id="gft17bMY0GECLjVTUZjr-160" value="" style="rounded=0;whiteSpace=wrap;html=1;strokeWidth=2;" vertex="1" parent="1">
          <mxGeometry x="440" y="379" width="20" height="20" as="geometry" />
        </mxCell>
        <mxCell id="gft17bMY0GECLjVTUZjr-161" value="" style="rounded=0;whiteSpace=wrap;html=1;strokeWidth=2;" vertex="1" parent="1">
          <mxGeometry x="460" y="379" width="20" height="20" as="geometry" />
        </mxCell>
        <mxCell id="gft17bMY0GECLjVTUZjr-162" value="" style="rounded=0;whiteSpace=wrap;html=1;strokeWidth=2;" vertex="1" parent="1">
          <mxGeometry x="500" y="379" width="20" height="20" as="geometry" />
        </mxCell>
        <mxCell id="gft17bMY0GECLjVTUZjr-163" value="" style="rounded=0;whiteSpace=wrap;html=1;strokeWidth=2;" vertex="1" parent="1">
          <mxGeometry x="480" y="379" width="20" height="20" as="geometry" />
        </mxCell>
        <mxCell id="gft17bMY0GECLjVTUZjr-164" value="" style="rounded=0;whiteSpace=wrap;html=1;strokeWidth=2;" vertex="1" parent="1">
          <mxGeometry x="580" y="379" width="20" height="20" as="geometry" />
        </mxCell>
        <mxCell id="gft17bMY0GECLjVTUZjr-165" value="" style="rounded=0;whiteSpace=wrap;html=1;strokeWidth=2;" vertex="1" parent="1">
          <mxGeometry x="560" y="379" width="20" height="20" as="geometry" />
        </mxCell>
        <mxCell id="gft17bMY0GECLjVTUZjr-166" value="" style="rounded=0;whiteSpace=wrap;html=1;strokeWidth=2;" vertex="1" parent="1">
          <mxGeometry x="520" y="379" width="20" height="20" as="geometry" />
        </mxCell>
        <mxCell id="gft17bMY0GECLjVTUZjr-167" value="" style="rounded=0;whiteSpace=wrap;html=1;strokeWidth=2;" vertex="1" parent="1">
          <mxGeometry x="540" y="379" width="20" height="20" as="geometry" />
        </mxCell>
        <mxCell id="gft17bMY0GECLjVTUZjr-168" value="" style="rounded=0;whiteSpace=wrap;html=1;strokeWidth=2;" vertex="1" parent="1">
          <mxGeometry x="280" y="398" width="20" height="20" as="geometry" />
        </mxCell>
        <mxCell id="gft17bMY0GECLjVTUZjr-169" value="" style="rounded=0;whiteSpace=wrap;html=1;strokeWidth=2;" vertex="1" parent="1">
          <mxGeometry x="300" y="398" width="20" height="20" as="geometry" />
        </mxCell>
        <mxCell id="gft17bMY0GECLjVTUZjr-170" value="" style="rounded=0;whiteSpace=wrap;html=1;strokeWidth=2;" vertex="1" parent="1">
          <mxGeometry x="340" y="398" width="20" height="20" as="geometry" />
        </mxCell>
        <mxCell id="gft17bMY0GECLjVTUZjr-171" value="" style="rounded=0;whiteSpace=wrap;html=1;strokeWidth=2;" vertex="1" parent="1">
          <mxGeometry x="320" y="398" width="20" height="20" as="geometry" />
        </mxCell>
        <mxCell id="gft17bMY0GECLjVTUZjr-172" value="" style="rounded=0;whiteSpace=wrap;html=1;strokeWidth=2;" vertex="1" parent="1">
          <mxGeometry x="420" y="398" width="20" height="20" as="geometry" />
        </mxCell>
        <mxCell id="gft17bMY0GECLjVTUZjr-173" value="" style="rounded=0;whiteSpace=wrap;html=1;strokeWidth=2;" vertex="1" parent="1">
          <mxGeometry x="400" y="398" width="20" height="20" as="geometry" />
        </mxCell>
        <mxCell id="gft17bMY0GECLjVTUZjr-174" value="" style="rounded=0;whiteSpace=wrap;html=1;strokeWidth=2;" vertex="1" parent="1">
          <mxGeometry x="360" y="398" width="20" height="20" as="geometry" />
        </mxCell>
        <mxCell id="gft17bMY0GECLjVTUZjr-175" value="" style="rounded=0;whiteSpace=wrap;html=1;strokeWidth=2;" vertex="1" parent="1">
          <mxGeometry x="380" y="398" width="20" height="20" as="geometry" />
        </mxCell>
        <mxCell id="gft17bMY0GECLjVTUZjr-176" value="" style="rounded=0;whiteSpace=wrap;html=1;strokeWidth=2;" vertex="1" parent="1">
          <mxGeometry x="440" y="398" width="20" height="20" as="geometry" />
        </mxCell>
        <mxCell id="gft17bMY0GECLjVTUZjr-177" value="" style="rounded=0;whiteSpace=wrap;html=1;strokeWidth=2;" vertex="1" parent="1">
          <mxGeometry x="460" y="398" width="20" height="20" as="geometry" />
        </mxCell>
        <mxCell id="gft17bMY0GECLjVTUZjr-178" value="" style="rounded=0;whiteSpace=wrap;html=1;strokeWidth=2;" vertex="1" parent="1">
          <mxGeometry x="500" y="398" width="20" height="20" as="geometry" />
        </mxCell>
        <mxCell id="gft17bMY0GECLjVTUZjr-179" value="" style="rounded=0;whiteSpace=wrap;html=1;strokeWidth=2;" vertex="1" parent="1">
          <mxGeometry x="480" y="398" width="20" height="20" as="geometry" />
        </mxCell>
        <mxCell id="gft17bMY0GECLjVTUZjr-180" value="" style="rounded=0;whiteSpace=wrap;html=1;strokeWidth=2;" vertex="1" parent="1">
          <mxGeometry x="580" y="398" width="20" height="20" as="geometry" />
        </mxCell>
        <mxCell id="gft17bMY0GECLjVTUZjr-181" value="" style="rounded=0;whiteSpace=wrap;html=1;strokeWidth=2;" vertex="1" parent="1">
          <mxGeometry x="560" y="398" width="20" height="20" as="geometry" />
        </mxCell>
        <mxCell id="gft17bMY0GECLjVTUZjr-182" value="" style="rounded=0;whiteSpace=wrap;html=1;strokeWidth=2;" vertex="1" parent="1">
          <mxGeometry x="520" y="398" width="20" height="20" as="geometry" />
        </mxCell>
        <mxCell id="gft17bMY0GECLjVTUZjr-183" value="" style="rounded=0;whiteSpace=wrap;html=1;strokeWidth=2;" vertex="1" parent="1">
          <mxGeometry x="540" y="398" width="20" height="20" as="geometry" />
        </mxCell>
        <mxCell id="gft17bMY0GECLjVTUZjr-184" value="" style="rounded=0;whiteSpace=wrap;html=1;strokeWidth=2;" vertex="1" parent="1">
          <mxGeometry x="280" y="418" width="20" height="20" as="geometry" />
        </mxCell>
        <mxCell id="gft17bMY0GECLjVTUZjr-185" value="" style="rounded=0;whiteSpace=wrap;html=1;strokeWidth=2;" vertex="1" parent="1">
          <mxGeometry x="300" y="418" width="20" height="20" as="geometry" />
        </mxCell>
        <mxCell id="gft17bMY0GECLjVTUZjr-186" value="" style="rounded=0;whiteSpace=wrap;html=1;strokeWidth=2;" vertex="1" parent="1">
          <mxGeometry x="340" y="418" width="20" height="20" as="geometry" />
        </mxCell>
        <mxCell id="gft17bMY0GECLjVTUZjr-187" value="" style="rounded=0;whiteSpace=wrap;html=1;strokeWidth=2;" vertex="1" parent="1">
          <mxGeometry x="320" y="418" width="20" height="20" as="geometry" />
        </mxCell>
        <mxCell id="gft17bMY0GECLjVTUZjr-188" value="" style="rounded=0;whiteSpace=wrap;html=1;strokeWidth=2;" vertex="1" parent="1">
          <mxGeometry x="420" y="418" width="20" height="20" as="geometry" />
        </mxCell>
        <mxCell id="gft17bMY0GECLjVTUZjr-189" value="" style="rounded=0;whiteSpace=wrap;html=1;strokeWidth=2;" vertex="1" parent="1">
          <mxGeometry x="400" y="418" width="20" height="20" as="geometry" />
        </mxCell>
        <mxCell id="gft17bMY0GECLjVTUZjr-190" value="" style="rounded=0;whiteSpace=wrap;html=1;strokeWidth=2;" vertex="1" parent="1">
          <mxGeometry x="360" y="418" width="20" height="20" as="geometry" />
        </mxCell>
        <mxCell id="gft17bMY0GECLjVTUZjr-191" value="" style="rounded=0;whiteSpace=wrap;html=1;strokeWidth=2;" vertex="1" parent="1">
          <mxGeometry x="380" y="418" width="20" height="20" as="geometry" />
        </mxCell>
        <mxCell id="gft17bMY0GECLjVTUZjr-192" value="" style="rounded=0;whiteSpace=wrap;html=1;strokeWidth=2;" vertex="1" parent="1">
          <mxGeometry x="440" y="418" width="20" height="20" as="geometry" />
        </mxCell>
        <mxCell id="gft17bMY0GECLjVTUZjr-193" value="" style="rounded=0;whiteSpace=wrap;html=1;strokeWidth=2;" vertex="1" parent="1">
          <mxGeometry x="460" y="418" width="20" height="20" as="geometry" />
        </mxCell>
        <mxCell id="gft17bMY0GECLjVTUZjr-194" value="" style="rounded=0;whiteSpace=wrap;html=1;strokeWidth=2;" vertex="1" parent="1">
          <mxGeometry x="500" y="418" width="20" height="20" as="geometry" />
        </mxCell>
        <mxCell id="gft17bMY0GECLjVTUZjr-195" value="" style="rounded=0;whiteSpace=wrap;html=1;strokeWidth=2;" vertex="1" parent="1">
          <mxGeometry x="480" y="418" width="20" height="20" as="geometry" />
        </mxCell>
        <mxCell id="gft17bMY0GECLjVTUZjr-196" value="" style="rounded=0;whiteSpace=wrap;html=1;strokeWidth=2;" vertex="1" parent="1">
          <mxGeometry x="580" y="418" width="20" height="20" as="geometry" />
        </mxCell>
        <mxCell id="gft17bMY0GECLjVTUZjr-197" value="" style="rounded=0;whiteSpace=wrap;html=1;strokeWidth=2;" vertex="1" parent="1">
          <mxGeometry x="560" y="418" width="20" height="20" as="geometry" />
        </mxCell>
        <mxCell id="gft17bMY0GECLjVTUZjr-198" value="" style="rounded=0;whiteSpace=wrap;html=1;strokeWidth=2;" vertex="1" parent="1">
          <mxGeometry x="520" y="418" width="20" height="20" as="geometry" />
        </mxCell>
        <mxCell id="gft17bMY0GECLjVTUZjr-199" value="" style="rounded=0;whiteSpace=wrap;html=1;strokeWidth=2;" vertex="1" parent="1">
          <mxGeometry x="540" y="418" width="20" height="20" as="geometry" />
        </mxCell>
        <mxCell id="gft17bMY0GECLjVTUZjr-200" value="SENSE AMPLIFIER" style="rounded=0;whiteSpace=wrap;html=1;strokeWidth=2;fillColor=#f8cecc;strokeColor=#b85450;" vertex="1" parent="1">
          <mxGeometry x="280" y="438" width="320" height="20" as="geometry" />
        </mxCell>
        <mxCell id="gft17bMY0GECLjVTUZjr-201" value="LOCAL ROW DECODER" style="shape=trapezoid;perimeter=trapezoidPerimeter;whiteSpace=wrap;html=1;fixedSize=1;size=41.5;direction=south;fillColor=#ffe6cc;strokeColor=#d79b00;fontSize=11;" vertex="1" parent="1">
          <mxGeometry x="190" y="277" width="60" height="181" as="geometry" />
        </mxCell>
        <mxCell id="gft17bMY0GECLjVTUZjr-202" value="COLUMN DECODER" style="shape=trapezoid;perimeter=trapezoidPerimeter;whiteSpace=wrap;html=1;fixedSize=1;size=41.5;direction=west;fillColor=#ffe6cc;strokeColor=#d79b00;fontSize=11;" vertex="1" parent="1">
          <mxGeometry x="279" y="500" width="321" height="40" as="geometry" />
        </mxCell>
        <mxCell id="gft17bMY0GECLjVTUZjr-203" value="" style="rounded=0;whiteSpace=wrap;html=1;strokeWidth=2;" vertex="1" parent="1">
          <mxGeometry x="290" y="683" width="20" height="20" as="geometry" />
        </mxCell>
        <mxCell id="gft17bMY0GECLjVTUZjr-204" value="" style="rounded=0;whiteSpace=wrap;html=1;strokeWidth=2;" vertex="1" parent="1">
          <mxGeometry x="310" y="683" width="20" height="20" as="geometry" />
        </mxCell>
        <mxCell id="gft17bMY0GECLjVTUZjr-205" value="" style="rounded=0;whiteSpace=wrap;html=1;strokeWidth=2;" vertex="1" parent="1">
          <mxGeometry x="350" y="683" width="20" height="20" as="geometry" />
        </mxCell>
        <mxCell id="gft17bMY0GECLjVTUZjr-206" value="" style="rounded=0;whiteSpace=wrap;html=1;strokeWidth=2;" vertex="1" parent="1">
          <mxGeometry x="330" y="683" width="20" height="20" as="geometry" />
        </mxCell>
        <mxCell id="gft17bMY0GECLjVTUZjr-207" value="" style="rounded=0;whiteSpace=wrap;html=1;strokeWidth=2;" vertex="1" parent="1">
          <mxGeometry x="430" y="683" width="20" height="20" as="geometry" />
        </mxCell>
        <mxCell id="gft17bMY0GECLjVTUZjr-208" value="" style="rounded=0;whiteSpace=wrap;html=1;strokeWidth=2;" vertex="1" parent="1">
          <mxGeometry x="410" y="683" width="20" height="20" as="geometry" />
        </mxCell>
        <mxCell id="gft17bMY0GECLjVTUZjr-209" value="" style="rounded=0;whiteSpace=wrap;html=1;strokeWidth=2;" vertex="1" parent="1">
          <mxGeometry x="370" y="683" width="20" height="20" as="geometry" />
        </mxCell>
        <mxCell id="gft17bMY0GECLjVTUZjr-210" value="" style="rounded=0;whiteSpace=wrap;html=1;strokeWidth=2;" vertex="1" parent="1">
          <mxGeometry x="390" y="683" width="20" height="20" as="geometry" />
        </mxCell>
        <mxCell id="gft17bMY0GECLjVTUZjr-211" value="" style="rounded=0;whiteSpace=wrap;html=1;strokeWidth=2;" vertex="1" parent="1">
          <mxGeometry x="450" y="683" width="20" height="20" as="geometry" />
        </mxCell>
        <mxCell id="gft17bMY0GECLjVTUZjr-212" value="" style="rounded=0;whiteSpace=wrap;html=1;strokeWidth=2;" vertex="1" parent="1">
          <mxGeometry x="470" y="683" width="20" height="20" as="geometry" />
        </mxCell>
        <mxCell id="gft17bMY0GECLjVTUZjr-213" value="" style="rounded=0;whiteSpace=wrap;html=1;strokeWidth=2;" vertex="1" parent="1">
          <mxGeometry x="510" y="683" width="20" height="20" as="geometry" />
        </mxCell>
        <mxCell id="gft17bMY0GECLjVTUZjr-214" value="" style="rounded=0;whiteSpace=wrap;html=1;strokeWidth=2;" vertex="1" parent="1">
          <mxGeometry x="490" y="683" width="20" height="20" as="geometry" />
        </mxCell>
        <mxCell id="gft17bMY0GECLjVTUZjr-215" value="" style="rounded=0;whiteSpace=wrap;html=1;strokeWidth=2;" vertex="1" parent="1">
          <mxGeometry x="590" y="683" width="20" height="20" as="geometry" />
        </mxCell>
        <mxCell id="gft17bMY0GECLjVTUZjr-216" value="" style="rounded=0;whiteSpace=wrap;html=1;strokeWidth=2;" vertex="1" parent="1">
          <mxGeometry x="570" y="683" width="20" height="20" as="geometry" />
        </mxCell>
        <mxCell id="gft17bMY0GECLjVTUZjr-217" value="" style="rounded=0;whiteSpace=wrap;html=1;strokeWidth=2;" vertex="1" parent="1">
          <mxGeometry x="530" y="683" width="20" height="20" as="geometry" />
        </mxCell>
        <mxCell id="gft17bMY0GECLjVTUZjr-218" value="" style="rounded=0;whiteSpace=wrap;html=1;strokeWidth=2;" vertex="1" parent="1">
          <mxGeometry x="550" y="683" width="20" height="20" as="geometry" />
        </mxCell>
        <mxCell id="gft17bMY0GECLjVTUZjr-219" value="" style="rounded=0;whiteSpace=wrap;html=1;strokeWidth=2;" vertex="1" parent="1">
          <mxGeometry x="290" y="703" width="20" height="20" as="geometry" />
        </mxCell>
        <mxCell id="gft17bMY0GECLjVTUZjr-220" value="" style="rounded=0;whiteSpace=wrap;html=1;strokeWidth=2;" vertex="1" parent="1">
          <mxGeometry x="310" y="703" width="20" height="20" as="geometry" />
        </mxCell>
        <mxCell id="gft17bMY0GECLjVTUZjr-221" value="" style="rounded=0;whiteSpace=wrap;html=1;strokeWidth=2;" vertex="1" parent="1">
          <mxGeometry x="350" y="703" width="20" height="20" as="geometry" />
        </mxCell>
        <mxCell id="gft17bMY0GECLjVTUZjr-222" value="" style="rounded=0;whiteSpace=wrap;html=1;strokeWidth=2;" vertex="1" parent="1">
          <mxGeometry x="330" y="703" width="20" height="20" as="geometry" />
        </mxCell>
        <mxCell id="gft17bMY0GECLjVTUZjr-223" value="" style="rounded=0;whiteSpace=wrap;html=1;strokeWidth=2;" vertex="1" parent="1">
          <mxGeometry x="430" y="703" width="20" height="20" as="geometry" />
        </mxCell>
        <mxCell id="gft17bMY0GECLjVTUZjr-224" value="" style="rounded=0;whiteSpace=wrap;html=1;strokeWidth=2;" vertex="1" parent="1">
          <mxGeometry x="410" y="703" width="20" height="20" as="geometry" />
        </mxCell>
        <mxCell id="gft17bMY0GECLjVTUZjr-225" value="" style="rounded=0;whiteSpace=wrap;html=1;strokeWidth=2;" vertex="1" parent="1">
          <mxGeometry x="370" y="703" width="20" height="20" as="geometry" />
        </mxCell>
        <mxCell id="gft17bMY0GECLjVTUZjr-226" value="" style="rounded=0;whiteSpace=wrap;html=1;strokeWidth=2;" vertex="1" parent="1">
          <mxGeometry x="390" y="703" width="20" height="20" as="geometry" />
        </mxCell>
        <mxCell id="gft17bMY0GECLjVTUZjr-227" value="" style="rounded=0;whiteSpace=wrap;html=1;strokeWidth=2;" vertex="1" parent="1">
          <mxGeometry x="450" y="703" width="20" height="20" as="geometry" />
        </mxCell>
        <mxCell id="gft17bMY0GECLjVTUZjr-228" value="" style="rounded=0;whiteSpace=wrap;html=1;strokeWidth=2;" vertex="1" parent="1">
          <mxGeometry x="470" y="703" width="20" height="20" as="geometry" />
        </mxCell>
        <mxCell id="gft17bMY0GECLjVTUZjr-229" value="" style="rounded=0;whiteSpace=wrap;html=1;strokeWidth=2;" vertex="1" parent="1">
          <mxGeometry x="510" y="703" width="20" height="20" as="geometry" />
        </mxCell>
        <mxCell id="gft17bMY0GECLjVTUZjr-230" value="" style="rounded=0;whiteSpace=wrap;html=1;strokeWidth=2;" vertex="1" parent="1">
          <mxGeometry x="490" y="703" width="20" height="20" as="geometry" />
        </mxCell>
        <mxCell id="gft17bMY0GECLjVTUZjr-231" value="" style="rounded=0;whiteSpace=wrap;html=1;strokeWidth=2;" vertex="1" parent="1">
          <mxGeometry x="590" y="703" width="20" height="20" as="geometry" />
        </mxCell>
        <mxCell id="gft17bMY0GECLjVTUZjr-232" value="" style="rounded=0;whiteSpace=wrap;html=1;strokeWidth=2;" vertex="1" parent="1">
          <mxGeometry x="570" y="703" width="20" height="20" as="geometry" />
        </mxCell>
        <mxCell id="gft17bMY0GECLjVTUZjr-233" value="" style="rounded=0;whiteSpace=wrap;html=1;strokeWidth=2;" vertex="1" parent="1">
          <mxGeometry x="530" y="703" width="20" height="20" as="geometry" />
        </mxCell>
        <mxCell id="gft17bMY0GECLjVTUZjr-234" value="" style="rounded=0;whiteSpace=wrap;html=1;strokeWidth=2;" vertex="1" parent="1">
          <mxGeometry x="550" y="703" width="20" height="20" as="geometry" />
        </mxCell>
        <mxCell id="gft17bMY0GECLjVTUZjr-235" value="" style="rounded=0;whiteSpace=wrap;html=1;strokeWidth=2;" vertex="1" parent="1">
          <mxGeometry x="290" y="722" width="20" height="20" as="geometry" />
        </mxCell>
        <mxCell id="gft17bMY0GECLjVTUZjr-236" value="" style="rounded=0;whiteSpace=wrap;html=1;strokeWidth=2;" vertex="1" parent="1">
          <mxGeometry x="310" y="722" width="20" height="20" as="geometry" />
        </mxCell>
        <mxCell id="gft17bMY0GECLjVTUZjr-237" value="" style="rounded=0;whiteSpace=wrap;html=1;strokeWidth=2;" vertex="1" parent="1">
          <mxGeometry x="350" y="722" width="20" height="20" as="geometry" />
        </mxCell>
        <mxCell id="gft17bMY0GECLjVTUZjr-238" value="" style="rounded=0;whiteSpace=wrap;html=1;strokeWidth=2;" vertex="1" parent="1">
          <mxGeometry x="330" y="722" width="20" height="20" as="geometry" />
        </mxCell>
        <mxCell id="gft17bMY0GECLjVTUZjr-239" value="" style="rounded=0;whiteSpace=wrap;html=1;strokeWidth=2;" vertex="1" parent="1">
          <mxGeometry x="430" y="722" width="20" height="20" as="geometry" />
        </mxCell>
        <mxCell id="gft17bMY0GECLjVTUZjr-240" value="" style="rounded=0;whiteSpace=wrap;html=1;strokeWidth=2;" vertex="1" parent="1">
          <mxGeometry x="410" y="722" width="20" height="20" as="geometry" />
        </mxCell>
        <mxCell id="gft17bMY0GECLjVTUZjr-241" value="" style="rounded=0;whiteSpace=wrap;html=1;strokeWidth=2;" vertex="1" parent="1">
          <mxGeometry x="370" y="722" width="20" height="20" as="geometry" />
        </mxCell>
        <mxCell id="gft17bMY0GECLjVTUZjr-242" value="" style="rounded=0;whiteSpace=wrap;html=1;strokeWidth=2;" vertex="1" parent="1">
          <mxGeometry x="390" y="722" width="20" height="20" as="geometry" />
        </mxCell>
        <mxCell id="gft17bMY0GECLjVTUZjr-243" value="" style="rounded=0;whiteSpace=wrap;html=1;strokeWidth=2;" vertex="1" parent="1">
          <mxGeometry x="450" y="722" width="20" height="20" as="geometry" />
        </mxCell>
        <mxCell id="gft17bMY0GECLjVTUZjr-244" value="" style="rounded=0;whiteSpace=wrap;html=1;strokeWidth=2;" vertex="1" parent="1">
          <mxGeometry x="470" y="722" width="20" height="20" as="geometry" />
        </mxCell>
        <mxCell id="gft17bMY0GECLjVTUZjr-245" value="" style="rounded=0;whiteSpace=wrap;html=1;strokeWidth=2;" vertex="1" parent="1">
          <mxGeometry x="510" y="722" width="20" height="20" as="geometry" />
        </mxCell>
        <mxCell id="gft17bMY0GECLjVTUZjr-246" value="" style="rounded=0;whiteSpace=wrap;html=1;strokeWidth=2;" vertex="1" parent="1">
          <mxGeometry x="490" y="722" width="20" height="20" as="geometry" />
        </mxCell>
        <mxCell id="gft17bMY0GECLjVTUZjr-247" value="" style="rounded=0;whiteSpace=wrap;html=1;strokeWidth=2;" vertex="1" parent="1">
          <mxGeometry x="590" y="722" width="20" height="20" as="geometry" />
        </mxCell>
        <mxCell id="gft17bMY0GECLjVTUZjr-248" value="" style="rounded=0;whiteSpace=wrap;html=1;strokeWidth=2;" vertex="1" parent="1">
          <mxGeometry x="570" y="722" width="20" height="20" as="geometry" />
        </mxCell>
        <mxCell id="gft17bMY0GECLjVTUZjr-249" value="" style="rounded=0;whiteSpace=wrap;html=1;strokeWidth=2;" vertex="1" parent="1">
          <mxGeometry x="530" y="722" width="20" height="20" as="geometry" />
        </mxCell>
        <mxCell id="gft17bMY0GECLjVTUZjr-250" value="" style="rounded=0;whiteSpace=wrap;html=1;strokeWidth=2;" vertex="1" parent="1">
          <mxGeometry x="550" y="722" width="20" height="20" as="geometry" />
        </mxCell>
        <mxCell id="gft17bMY0GECLjVTUZjr-251" value="" style="rounded=0;whiteSpace=wrap;html=1;strokeWidth=2;" vertex="1" parent="1">
          <mxGeometry x="290" y="742" width="20" height="20" as="geometry" />
        </mxCell>
        <mxCell id="gft17bMY0GECLjVTUZjr-252" value="" style="rounded=0;whiteSpace=wrap;html=1;strokeWidth=2;" vertex="1" parent="1">
          <mxGeometry x="310" y="742" width="20" height="20" as="geometry" />
        </mxCell>
        <mxCell id="gft17bMY0GECLjVTUZjr-253" value="" style="rounded=0;whiteSpace=wrap;html=1;strokeWidth=2;" vertex="1" parent="1">
          <mxGeometry x="350" y="742" width="20" height="20" as="geometry" />
        </mxCell>
        <mxCell id="gft17bMY0GECLjVTUZjr-254" value="" style="rounded=0;whiteSpace=wrap;html=1;strokeWidth=2;" vertex="1" parent="1">
          <mxGeometry x="330" y="742" width="20" height="20" as="geometry" />
        </mxCell>
        <mxCell id="gft17bMY0GECLjVTUZjr-255" value="" style="rounded=0;whiteSpace=wrap;html=1;strokeWidth=2;" vertex="1" parent="1">
          <mxGeometry x="430" y="742" width="20" height="20" as="geometry" />
        </mxCell>
        <mxCell id="gft17bMY0GECLjVTUZjr-256" value="" style="rounded=0;whiteSpace=wrap;html=1;strokeWidth=2;" vertex="1" parent="1">
          <mxGeometry x="410" y="742" width="20" height="20" as="geometry" />
        </mxCell>
        <mxCell id="gft17bMY0GECLjVTUZjr-257" value="" style="rounded=0;whiteSpace=wrap;html=1;strokeWidth=2;" vertex="1" parent="1">
          <mxGeometry x="370" y="742" width="20" height="20" as="geometry" />
        </mxCell>
        <mxCell id="gft17bMY0GECLjVTUZjr-258" value="" style="rounded=0;whiteSpace=wrap;html=1;strokeWidth=2;" vertex="1" parent="1">
          <mxGeometry x="390" y="742" width="20" height="20" as="geometry" />
        </mxCell>
        <mxCell id="gft17bMY0GECLjVTUZjr-259" value="" style="rounded=0;whiteSpace=wrap;html=1;strokeWidth=2;" vertex="1" parent="1">
          <mxGeometry x="450" y="742" width="20" height="20" as="geometry" />
        </mxCell>
        <mxCell id="gft17bMY0GECLjVTUZjr-260" value="" style="rounded=0;whiteSpace=wrap;html=1;strokeWidth=2;" vertex="1" parent="1">
          <mxGeometry x="470" y="742" width="20" height="20" as="geometry" />
        </mxCell>
        <mxCell id="gft17bMY0GECLjVTUZjr-261" value="" style="rounded=0;whiteSpace=wrap;html=1;strokeWidth=2;" vertex="1" parent="1">
          <mxGeometry x="510" y="742" width="20" height="20" as="geometry" />
        </mxCell>
        <mxCell id="gft17bMY0GECLjVTUZjr-262" value="" style="rounded=0;whiteSpace=wrap;html=1;strokeWidth=2;" vertex="1" parent="1">
          <mxGeometry x="490" y="742" width="20" height="20" as="geometry" />
        </mxCell>
        <mxCell id="gft17bMY0GECLjVTUZjr-263" value="" style="rounded=0;whiteSpace=wrap;html=1;strokeWidth=2;" vertex="1" parent="1">
          <mxGeometry x="590" y="742" width="20" height="20" as="geometry" />
        </mxCell>
        <mxCell id="gft17bMY0GECLjVTUZjr-264" value="" style="rounded=0;whiteSpace=wrap;html=1;strokeWidth=2;" vertex="1" parent="1">
          <mxGeometry x="570" y="742" width="20" height="20" as="geometry" />
        </mxCell>
        <mxCell id="gft17bMY0GECLjVTUZjr-265" value="" style="rounded=0;whiteSpace=wrap;html=1;strokeWidth=2;" vertex="1" parent="1">
          <mxGeometry x="530" y="742" width="20" height="20" as="geometry" />
        </mxCell>
        <mxCell id="gft17bMY0GECLjVTUZjr-266" value="" style="rounded=0;whiteSpace=wrap;html=1;strokeWidth=2;" vertex="1" parent="1">
          <mxGeometry x="550" y="742" width="20" height="20" as="geometry" />
        </mxCell>
        <mxCell id="gft17bMY0GECLjVTUZjr-267" value="" style="rounded=0;whiteSpace=wrap;html=1;strokeWidth=2;" vertex="1" parent="1">
          <mxGeometry x="290" y="762" width="20" height="20" as="geometry" />
        </mxCell>
        <mxCell id="gft17bMY0GECLjVTUZjr-268" value="" style="rounded=0;whiteSpace=wrap;html=1;strokeWidth=2;" vertex="1" parent="1">
          <mxGeometry x="310" y="762" width="20" height="20" as="geometry" />
        </mxCell>
        <mxCell id="gft17bMY0GECLjVTUZjr-269" value="" style="rounded=0;whiteSpace=wrap;html=1;strokeWidth=2;" vertex="1" parent="1">
          <mxGeometry x="350" y="762" width="20" height="20" as="geometry" />
        </mxCell>
        <mxCell id="gft17bMY0GECLjVTUZjr-270" value="" style="rounded=0;whiteSpace=wrap;html=1;strokeWidth=2;" vertex="1" parent="1">
          <mxGeometry x="330" y="762" width="20" height="20" as="geometry" />
        </mxCell>
        <mxCell id="gft17bMY0GECLjVTUZjr-271" value="" style="rounded=0;whiteSpace=wrap;html=1;strokeWidth=2;" vertex="1" parent="1">
          <mxGeometry x="430" y="762" width="20" height="20" as="geometry" />
        </mxCell>
        <mxCell id="gft17bMY0GECLjVTUZjr-272" value="" style="rounded=0;whiteSpace=wrap;html=1;strokeWidth=2;" vertex="1" parent="1">
          <mxGeometry x="410" y="762" width="20" height="20" as="geometry" />
        </mxCell>
        <mxCell id="gft17bMY0GECLjVTUZjr-273" value="" style="rounded=0;whiteSpace=wrap;html=1;strokeWidth=2;" vertex="1" parent="1">
          <mxGeometry x="370" y="762" width="20" height="20" as="geometry" />
        </mxCell>
        <mxCell id="gft17bMY0GECLjVTUZjr-274" value="" style="rounded=0;whiteSpace=wrap;html=1;strokeWidth=2;" vertex="1" parent="1">
          <mxGeometry x="390" y="762" width="20" height="20" as="geometry" />
        </mxCell>
        <mxCell id="gft17bMY0GECLjVTUZjr-275" value="" style="rounded=0;whiteSpace=wrap;html=1;strokeWidth=2;" vertex="1" parent="1">
          <mxGeometry x="450" y="762" width="20" height="20" as="geometry" />
        </mxCell>
        <mxCell id="gft17bMY0GECLjVTUZjr-276" value="" style="rounded=0;whiteSpace=wrap;html=1;strokeWidth=2;" vertex="1" parent="1">
          <mxGeometry x="470" y="762" width="20" height="20" as="geometry" />
        </mxCell>
        <mxCell id="gft17bMY0GECLjVTUZjr-277" value="" style="rounded=0;whiteSpace=wrap;html=1;strokeWidth=2;" vertex="1" parent="1">
          <mxGeometry x="510" y="762" width="20" height="20" as="geometry" />
        </mxCell>
        <mxCell id="gft17bMY0GECLjVTUZjr-278" value="" style="rounded=0;whiteSpace=wrap;html=1;strokeWidth=2;" vertex="1" parent="1">
          <mxGeometry x="490" y="762" width="20" height="20" as="geometry" />
        </mxCell>
        <mxCell id="gft17bMY0GECLjVTUZjr-279" value="" style="rounded=0;whiteSpace=wrap;html=1;strokeWidth=2;" vertex="1" parent="1">
          <mxGeometry x="590" y="762" width="20" height="20" as="geometry" />
        </mxCell>
        <mxCell id="gft17bMY0GECLjVTUZjr-280" value="" style="rounded=0;whiteSpace=wrap;html=1;strokeWidth=2;" vertex="1" parent="1">
          <mxGeometry x="570" y="762" width="20" height="20" as="geometry" />
        </mxCell>
        <mxCell id="gft17bMY0GECLjVTUZjr-281" value="" style="rounded=0;whiteSpace=wrap;html=1;strokeWidth=2;" vertex="1" parent="1">
          <mxGeometry x="530" y="762" width="20" height="20" as="geometry" />
        </mxCell>
        <mxCell id="gft17bMY0GECLjVTUZjr-282" value="" style="rounded=0;whiteSpace=wrap;html=1;strokeWidth=2;" vertex="1" parent="1">
          <mxGeometry x="550" y="762" width="20" height="20" as="geometry" />
        </mxCell>
        <mxCell id="gft17bMY0GECLjVTUZjr-283" value="" style="rounded=0;whiteSpace=wrap;html=1;strokeWidth=2;" vertex="1" parent="1">
          <mxGeometry x="290" y="782" width="20" height="20" as="geometry" />
        </mxCell>
        <mxCell id="gft17bMY0GECLjVTUZjr-284" value="" style="rounded=0;whiteSpace=wrap;html=1;strokeWidth=2;" vertex="1" parent="1">
          <mxGeometry x="310" y="782" width="20" height="20" as="geometry" />
        </mxCell>
        <mxCell id="gft17bMY0GECLjVTUZjr-285" value="" style="rounded=0;whiteSpace=wrap;html=1;strokeWidth=2;" vertex="1" parent="1">
          <mxGeometry x="350" y="782" width="20" height="20" as="geometry" />
        </mxCell>
        <mxCell id="gft17bMY0GECLjVTUZjr-286" value="" style="rounded=0;whiteSpace=wrap;html=1;strokeWidth=2;" vertex="1" parent="1">
          <mxGeometry x="330" y="782" width="20" height="20" as="geometry" />
        </mxCell>
        <mxCell id="gft17bMY0GECLjVTUZjr-287" value="" style="rounded=0;whiteSpace=wrap;html=1;strokeWidth=2;" vertex="1" parent="1">
          <mxGeometry x="430" y="782" width="20" height="20" as="geometry" />
        </mxCell>
        <mxCell id="gft17bMY0GECLjVTUZjr-288" value="" style="rounded=0;whiteSpace=wrap;html=1;strokeWidth=2;" vertex="1" parent="1">
          <mxGeometry x="410" y="782" width="20" height="20" as="geometry" />
        </mxCell>
        <mxCell id="gft17bMY0GECLjVTUZjr-289" value="" style="rounded=0;whiteSpace=wrap;html=1;strokeWidth=2;" vertex="1" parent="1">
          <mxGeometry x="370" y="782" width="20" height="20" as="geometry" />
        </mxCell>
        <mxCell id="gft17bMY0GECLjVTUZjr-290" value="" style="rounded=0;whiteSpace=wrap;html=1;strokeWidth=2;" vertex="1" parent="1">
          <mxGeometry x="390" y="782" width="20" height="20" as="geometry" />
        </mxCell>
        <mxCell id="gft17bMY0GECLjVTUZjr-291" value="" style="rounded=0;whiteSpace=wrap;html=1;strokeWidth=2;" vertex="1" parent="1">
          <mxGeometry x="450" y="782" width="20" height="20" as="geometry" />
        </mxCell>
        <mxCell id="gft17bMY0GECLjVTUZjr-292" value="" style="rounded=0;whiteSpace=wrap;html=1;strokeWidth=2;" vertex="1" parent="1">
          <mxGeometry x="470" y="782" width="20" height="20" as="geometry" />
        </mxCell>
        <mxCell id="gft17bMY0GECLjVTUZjr-293" value="" style="rounded=0;whiteSpace=wrap;html=1;strokeWidth=2;" vertex="1" parent="1">
          <mxGeometry x="510" y="782" width="20" height="20" as="geometry" />
        </mxCell>
        <mxCell id="gft17bMY0GECLjVTUZjr-294" value="" style="rounded=0;whiteSpace=wrap;html=1;strokeWidth=2;" vertex="1" parent="1">
          <mxGeometry x="490" y="782" width="20" height="20" as="geometry" />
        </mxCell>
        <mxCell id="gft17bMY0GECLjVTUZjr-295" value="" style="rounded=0;whiteSpace=wrap;html=1;strokeWidth=2;" vertex="1" parent="1">
          <mxGeometry x="590" y="782" width="20" height="20" as="geometry" />
        </mxCell>
        <mxCell id="gft17bMY0GECLjVTUZjr-296" value="" style="rounded=0;whiteSpace=wrap;html=1;strokeWidth=2;" vertex="1" parent="1">
          <mxGeometry x="570" y="782" width="20" height="20" as="geometry" />
        </mxCell>
        <mxCell id="gft17bMY0GECLjVTUZjr-297" value="" style="rounded=0;whiteSpace=wrap;html=1;strokeWidth=2;" vertex="1" parent="1">
          <mxGeometry x="530" y="782" width="20" height="20" as="geometry" />
        </mxCell>
        <mxCell id="gft17bMY0GECLjVTUZjr-298" value="" style="rounded=0;whiteSpace=wrap;html=1;strokeWidth=2;" vertex="1" parent="1">
          <mxGeometry x="550" y="782" width="20" height="20" as="geometry" />
        </mxCell>
        <mxCell id="gft17bMY0GECLjVTUZjr-299" value="" style="rounded=0;whiteSpace=wrap;html=1;strokeWidth=2;" vertex="1" parent="1">
          <mxGeometry x="290" y="801" width="20" height="20" as="geometry" />
        </mxCell>
        <mxCell id="gft17bMY0GECLjVTUZjr-300" value="" style="rounded=0;whiteSpace=wrap;html=1;strokeWidth=2;" vertex="1" parent="1">
          <mxGeometry x="310" y="801" width="20" height="20" as="geometry" />
        </mxCell>
        <mxCell id="gft17bMY0GECLjVTUZjr-301" value="" style="rounded=0;whiteSpace=wrap;html=1;strokeWidth=2;" vertex="1" parent="1">
          <mxGeometry x="350" y="801" width="20" height="20" as="geometry" />
        </mxCell>
        <mxCell id="gft17bMY0GECLjVTUZjr-302" value="" style="rounded=0;whiteSpace=wrap;html=1;strokeWidth=2;" vertex="1" parent="1">
          <mxGeometry x="330" y="801" width="20" height="20" as="geometry" />
        </mxCell>
        <mxCell id="gft17bMY0GECLjVTUZjr-303" value="" style="rounded=0;whiteSpace=wrap;html=1;strokeWidth=2;" vertex="1" parent="1">
          <mxGeometry x="430" y="801" width="20" height="20" as="geometry" />
        </mxCell>
        <mxCell id="gft17bMY0GECLjVTUZjr-304" value="" style="rounded=0;whiteSpace=wrap;html=1;strokeWidth=2;" vertex="1" parent="1">
          <mxGeometry x="410" y="801" width="20" height="20" as="geometry" />
        </mxCell>
        <mxCell id="gft17bMY0GECLjVTUZjr-305" value="" style="rounded=0;whiteSpace=wrap;html=1;strokeWidth=2;" vertex="1" parent="1">
          <mxGeometry x="370" y="801" width="20" height="20" as="geometry" />
        </mxCell>
        <mxCell id="gft17bMY0GECLjVTUZjr-306" value="" style="rounded=0;whiteSpace=wrap;html=1;strokeWidth=2;" vertex="1" parent="1">
          <mxGeometry x="390" y="801" width="20" height="20" as="geometry" />
        </mxCell>
        <mxCell id="gft17bMY0GECLjVTUZjr-307" value="" style="rounded=0;whiteSpace=wrap;html=1;strokeWidth=2;" vertex="1" parent="1">
          <mxGeometry x="450" y="801" width="20" height="20" as="geometry" />
        </mxCell>
        <mxCell id="gft17bMY0GECLjVTUZjr-308" value="" style="rounded=0;whiteSpace=wrap;html=1;strokeWidth=2;" vertex="1" parent="1">
          <mxGeometry x="470" y="801" width="20" height="20" as="geometry" />
        </mxCell>
        <mxCell id="gft17bMY0GECLjVTUZjr-309" value="" style="rounded=0;whiteSpace=wrap;html=1;strokeWidth=2;" vertex="1" parent="1">
          <mxGeometry x="510" y="801" width="20" height="20" as="geometry" />
        </mxCell>
        <mxCell id="gft17bMY0GECLjVTUZjr-310" value="" style="rounded=0;whiteSpace=wrap;html=1;strokeWidth=2;" vertex="1" parent="1">
          <mxGeometry x="490" y="801" width="20" height="20" as="geometry" />
        </mxCell>
        <mxCell id="gft17bMY0GECLjVTUZjr-311" value="" style="rounded=0;whiteSpace=wrap;html=1;strokeWidth=2;" vertex="1" parent="1">
          <mxGeometry x="590" y="801" width="20" height="20" as="geometry" />
        </mxCell>
        <mxCell id="gft17bMY0GECLjVTUZjr-312" value="" style="rounded=0;whiteSpace=wrap;html=1;strokeWidth=2;" vertex="1" parent="1">
          <mxGeometry x="570" y="801" width="20" height="20" as="geometry" />
        </mxCell>
        <mxCell id="gft17bMY0GECLjVTUZjr-313" value="" style="rounded=0;whiteSpace=wrap;html=1;strokeWidth=2;" vertex="1" parent="1">
          <mxGeometry x="530" y="801" width="20" height="20" as="geometry" />
        </mxCell>
        <mxCell id="gft17bMY0GECLjVTUZjr-314" value="" style="rounded=0;whiteSpace=wrap;html=1;strokeWidth=2;" vertex="1" parent="1">
          <mxGeometry x="550" y="801" width="20" height="20" as="geometry" />
        </mxCell>
        <mxCell id="gft17bMY0GECLjVTUZjr-315" value="" style="rounded=0;whiteSpace=wrap;html=1;strokeWidth=2;" vertex="1" parent="1">
          <mxGeometry x="290" y="821" width="20" height="20" as="geometry" />
        </mxCell>
        <mxCell id="gft17bMY0GECLjVTUZjr-316" value="" style="rounded=0;whiteSpace=wrap;html=1;strokeWidth=2;" vertex="1" parent="1">
          <mxGeometry x="310" y="821" width="20" height="20" as="geometry" />
        </mxCell>
        <mxCell id="gft17bMY0GECLjVTUZjr-317" value="" style="rounded=0;whiteSpace=wrap;html=1;strokeWidth=2;" vertex="1" parent="1">
          <mxGeometry x="350" y="821" width="20" height="20" as="geometry" />
        </mxCell>
        <mxCell id="gft17bMY0GECLjVTUZjr-318" value="" style="rounded=0;whiteSpace=wrap;html=1;strokeWidth=2;" vertex="1" parent="1">
          <mxGeometry x="330" y="821" width="20" height="20" as="geometry" />
        </mxCell>
        <mxCell id="gft17bMY0GECLjVTUZjr-319" value="" style="rounded=0;whiteSpace=wrap;html=1;strokeWidth=2;" vertex="1" parent="1">
          <mxGeometry x="430" y="821" width="20" height="20" as="geometry" />
        </mxCell>
        <mxCell id="gft17bMY0GECLjVTUZjr-320" value="" style="rounded=0;whiteSpace=wrap;html=1;strokeWidth=2;" vertex="1" parent="1">
          <mxGeometry x="410" y="821" width="20" height="20" as="geometry" />
        </mxCell>
        <mxCell id="gft17bMY0GECLjVTUZjr-321" value="" style="rounded=0;whiteSpace=wrap;html=1;strokeWidth=2;" vertex="1" parent="1">
          <mxGeometry x="370" y="821" width="20" height="20" as="geometry" />
        </mxCell>
        <mxCell id="gft17bMY0GECLjVTUZjr-322" value="" style="rounded=0;whiteSpace=wrap;html=1;strokeWidth=2;" vertex="1" parent="1">
          <mxGeometry x="390" y="821" width="20" height="20" as="geometry" />
        </mxCell>
        <mxCell id="gft17bMY0GECLjVTUZjr-323" value="" style="rounded=0;whiteSpace=wrap;html=1;strokeWidth=2;" vertex="1" parent="1">
          <mxGeometry x="450" y="821" width="20" height="20" as="geometry" />
        </mxCell>
        <mxCell id="gft17bMY0GECLjVTUZjr-324" value="" style="rounded=0;whiteSpace=wrap;html=1;strokeWidth=2;" vertex="1" parent="1">
          <mxGeometry x="470" y="821" width="20" height="20" as="geometry" />
        </mxCell>
        <mxCell id="gft17bMY0GECLjVTUZjr-325" value="" style="rounded=0;whiteSpace=wrap;html=1;strokeWidth=2;" vertex="1" parent="1">
          <mxGeometry x="510" y="821" width="20" height="20" as="geometry" />
        </mxCell>
        <mxCell id="gft17bMY0GECLjVTUZjr-326" value="" style="rounded=0;whiteSpace=wrap;html=1;strokeWidth=2;" vertex="1" parent="1">
          <mxGeometry x="490" y="821" width="20" height="20" as="geometry" />
        </mxCell>
        <mxCell id="gft17bMY0GECLjVTUZjr-327" value="" style="rounded=0;whiteSpace=wrap;html=1;strokeWidth=2;" vertex="1" parent="1">
          <mxGeometry x="590" y="821" width="20" height="20" as="geometry" />
        </mxCell>
        <mxCell id="gft17bMY0GECLjVTUZjr-328" value="" style="rounded=0;whiteSpace=wrap;html=1;strokeWidth=2;" vertex="1" parent="1">
          <mxGeometry x="570" y="821" width="20" height="20" as="geometry" />
        </mxCell>
        <mxCell id="gft17bMY0GECLjVTUZjr-329" value="" style="rounded=0;whiteSpace=wrap;html=1;strokeWidth=2;" vertex="1" parent="1">
          <mxGeometry x="530" y="821" width="20" height="20" as="geometry" />
        </mxCell>
        <mxCell id="gft17bMY0GECLjVTUZjr-330" value="" style="rounded=0;whiteSpace=wrap;html=1;strokeWidth=2;" vertex="1" parent="1">
          <mxGeometry x="550" y="821" width="20" height="20" as="geometry" />
        </mxCell>
        <mxCell id="gft17bMY0GECLjVTUZjr-331" value="SENSE AMPLIFIER" style="rounded=0;whiteSpace=wrap;html=1;strokeWidth=2;fillColor=#f8cecc;strokeColor=#b85450;" vertex="1" parent="1">
          <mxGeometry x="290" y="841" width="320" height="20" as="geometry" />
        </mxCell>
        <mxCell id="gft17bMY0GECLjVTUZjr-332" value="LOCAL ROW DECODER" style="shape=trapezoid;perimeter=trapezoidPerimeter;whiteSpace=wrap;html=1;fixedSize=1;size=41.5;direction=south;fillColor=#ffe6cc;strokeColor=#d79b00;fontSize=11;" vertex="1" parent="1">
          <mxGeometry x="190" y="680" width="60" height="181" as="geometry" />
        </mxCell>
        <mxCell id="gft17bMY0GECLjVTUZjr-333" value="COLUMN DECODER" style="shape=trapezoid;perimeter=trapezoidPerimeter;whiteSpace=wrap;html=1;fixedSize=1;size=41.5;direction=west;fillColor=#ffe6cc;strokeColor=#d79b00;fontSize=11;" vertex="1" parent="1">
          <mxGeometry x="289" y="903" width="321" height="40" as="geometry" />
        </mxCell>
        <mxCell id="gft17bMY0GECLjVTUZjr-337" style="edgeStyle=orthogonalEdgeStyle;rounded=0;orthogonalLoop=1;jettySize=auto;html=1;exitX=0.25;exitY=0;exitDx=0;exitDy=0;strokeWidth=2;strokeColor=#116fd4;" edge="1" parent="1" source="gft17bMY0GECLjVTUZjr-336" target="gft17bMY0GECLjVTUZjr-201">
          <mxGeometry relative="1" as="geometry" />
        </mxCell>
        <mxCell id="gft17bMY0GECLjVTUZjr-338" style="edgeStyle=orthogonalEdgeStyle;rounded=0;orthogonalLoop=1;jettySize=auto;html=1;exitX=0.25;exitY=0;exitDx=0;exitDy=0;entryX=0;entryY=0.5;entryDx=0;entryDy=0;strokeWidth=2;strokeColor=#116fd4;" edge="1" parent="1" target="gft17bMY0GECLjVTUZjr-332">
          <mxGeometry relative="1" as="geometry">
            <mxPoint x="40" y="540" as="sourcePoint" />
            <mxPoint x="220" y="719.25" as="targetPoint" />
            <Array as="points">
              <mxPoint x="220" y="540" />
            </Array>
          </mxGeometry>
        </mxCell>
        <mxCell id="gft17bMY0GECLjVTUZjr-339" style="edgeStyle=orthogonalEdgeStyle;rounded=0;orthogonalLoop=1;jettySize=auto;html=1;entryX=0.5;entryY=1;entryDx=0;entryDy=0;strokeWidth=2;" edge="1" parent="1" source="gft17bMY0GECLjVTUZjr-336" target="gft17bMY0GECLjVTUZjr-201">
          <mxGeometry relative="1" as="geometry" />
        </mxCell>
        <mxCell id="gft17bMY0GECLjVTUZjr-340" style="edgeStyle=orthogonalEdgeStyle;rounded=0;orthogonalLoop=1;jettySize=auto;html=1;exitX=0.5;exitY=0;exitDx=0;exitDy=0;entryX=0.5;entryY=1;entryDx=0;entryDy=0;strokeWidth=2;" edge="1" parent="1" source="gft17bMY0GECLjVTUZjr-336" target="gft17bMY0GECLjVTUZjr-332">
          <mxGeometry relative="1" as="geometry" />
        </mxCell>
        <mxCell id="gft17bMY0GECLjVTUZjr-336" value="GLOBAL ROW DECODER" style="shape=trapezoid;perimeter=trapezoidPerimeter;whiteSpace=wrap;html=1;fixedSize=1;size=41.5;direction=south;fillColor=#ffe6cc;strokeColor=#d79b00;fontSize=11;" vertex="1" parent="1">
          <mxGeometry x="-40" y="461" width="80" height="242" as="geometry" />
        </mxCell>
        <mxCell id="gft17bMY0GECLjVTUZjr-341" value="ROW ADDRESS" style="text;html=1;align=center;verticalAlign=middle;whiteSpace=wrap;rounded=0;" vertex="1" parent="1">
          <mxGeometry x="40" y="590" width="70" height="30" as="geometry" />
        </mxCell>
        <mxCell id="gft17bMY0GECLjVTUZjr-342" value="ENABLES (only 1 will be enabled)" style="text;html=1;align=center;verticalAlign=middle;whiteSpace=wrap;rounded=0;fontColor=#1e6fd4;" vertex="1" parent="1">
          <mxGeometry x="40" y="510" width="190" height="40" as="geometry" />
        </mxCell>
        <mxCell id="gft17bMY0GECLjVTUZjr-343" value=".&lt;div style=&quot;font-size: 28px;&quot;&gt;.&lt;/div&gt;&lt;div style=&quot;font-size: 28px;&quot;&gt;.&lt;/div&gt;" style="text;html=1;align=center;verticalAlign=middle;whiteSpace=wrap;rounded=0;fontSize=28;fontStyle=1" vertex="1" parent="1">
          <mxGeometry x="400" y="550" width="70" height="110" as="geometry" />
        </mxCell>
        <mxCell id="gft17bMY0GECLjVTUZjr-345" value="" style="endArrow=none;dashed=1;html=1;rounded=0;exitX=0;exitY=0;exitDx=0;exitDy=0;" edge="1" parent="1" source="gft17bMY0GECLjVTUZjr-1">
          <mxGeometry width="50" height="50" relative="1" as="geometry">
            <mxPoint x="-130" y="289" as="sourcePoint" />
            <mxPoint x="-80" y="239" as="targetPoint" />
          </mxGeometry>
        </mxCell>
        <mxCell id="gft17bMY0GECLjVTUZjr-348" value="" style="endArrow=none;dashed=1;html=1;rounded=0;exitX=0;exitY=0;exitDx=0;exitDy=0;entryX=0;entryY=1;entryDx=0;entryDy=0;" edge="1" parent="1" target="gft17bMY0GECLjVTUZjr-344">
          <mxGeometry width="50" height="50" relative="1" as="geometry">
            <mxPoint x="-250" y="679.5" as="sourcePoint" />
            <mxPoint x="-80" y="358.5" as="targetPoint" />
          </mxGeometry>
        </mxCell>
        <mxCell id="gft17bMY0GECLjVTUZjr-350" value="" style="endArrow=none;dashed=1;html=1;rounded=0;exitX=0;exitY=0;exitDx=0;exitDy=0;" edge="1" parent="1">
          <mxGeometry width="50" height="50" relative="1" as="geometry">
            <mxPoint x="590" y="680.5" as="sourcePoint" />
            <mxPoint x="760" y="520" as="targetPoint" />
          </mxGeometry>
        </mxCell>
        <mxCell id="gft17bMY0GECLjVTUZjr-351" value="" style="endArrow=none;dashed=1;html=1;rounded=0;exitX=0;exitY=0;exitDx=0;exitDy=0;" edge="1" parent="1">
          <mxGeometry width="50" height="50" relative="1" as="geometry">
            <mxPoint x="590" y="703" as="sourcePoint" />
            <mxPoint x="760" y="840" as="targetPoint" />
          </mxGeometry>
        </mxCell>
        <mxCell id="gft17bMY0GECLjVTUZjr-353" value="" style="endArrow=none;dashed=1;html=1;rounded=0;exitX=0;exitY=0;exitDx=0;exitDy=0;entryX=1;entryY=0;entryDx=0;entryDy=0;" edge="1" parent="1" target="gft17bMY0GECLjVTUZjr-352">
          <mxGeometry width="50" height="50" relative="1" as="geometry">
            <mxPoint x="610" y="683" as="sourcePoint" />
            <mxPoint x="780" y="522.5" as="targetPoint" />
          </mxGeometry>
        </mxCell>
        <mxCell id="gft17bMY0GECLjVTUZjr-354" value="" style="endArrow=none;dashed=1;html=1;rounded=0;exitX=0;exitY=0;exitDx=0;exitDy=0;entryX=1;entryY=1;entryDx=0;entryDy=0;" edge="1" parent="1" target="gft17bMY0GECLjVTUZjr-352">
          <mxGeometry width="50" height="50" relative="1" as="geometry">
            <mxPoint x="610" y="701" as="sourcePoint" />
            <mxPoint x="1040" y="538" as="targetPoint" />
          </mxGeometry>
        </mxCell>
        <mxCell id="gft17bMY0GECLjVTUZjr-352" value="" style="rounded=0;whiteSpace=wrap;html=1;strokeWidth=2;" vertex="1" parent="1">
          <mxGeometry x="760" y="520" width="280" height="320" as="geometry" />
        </mxCell>
        <mxCell id="gft17bMY0GECLjVTUZjr-355" value="" style="endArrow=none;html=1;rounded=0;strokeWidth=5;" edge="1" parent="1">
          <mxGeometry width="50" height="50" relative="1" as="geometry">
            <mxPoint x="770" y="580" as="sourcePoint" />
            <mxPoint x="1010" y="580" as="targetPoint" />
          </mxGeometry>
        </mxCell>
        <mxCell id="gft17bMY0GECLjVTUZjr-356" value="" style="endArrow=none;html=1;rounded=0;strokeWidth=5;" edge="1" parent="1">
          <mxGeometry width="50" height="50" relative="1" as="geometry">
            <mxPoint x="810" y="540" as="sourcePoint" />
            <mxPoint x="810" y="780" as="targetPoint" />
          </mxGeometry>
        </mxCell>
        <mxCell id="gft17bMY0GECLjVTUZjr-357" value="" style="endArrow=none;html=1;rounded=0;strokeWidth=3;" edge="1" parent="1">
          <mxGeometry width="50" height="50" relative="1" as="geometry">
            <mxPoint x="910" y="580" as="sourcePoint" />
            <mxPoint x="910" y="620" as="targetPoint" />
          </mxGeometry>
        </mxCell>
        <mxCell id="gft17bMY0GECLjVTUZjr-358" value="" style="endArrow=none;html=1;rounded=0;strokeWidth=3;" edge="1" parent="1">
          <mxGeometry width="50" height="50" relative="1" as="geometry">
            <mxPoint x="890" y="620" as="sourcePoint" />
            <mxPoint x="930" y="620" as="targetPoint" />
          </mxGeometry>
        </mxCell>
        <mxCell id="gft17bMY0GECLjVTUZjr-359" value="" style="endArrow=none;html=1;rounded=0;strokeWidth=3;" edge="1" parent="1">
          <mxGeometry width="50" height="50" relative="1" as="geometry">
            <mxPoint x="880" y="630" as="sourcePoint" />
            <mxPoint x="940" y="630" as="targetPoint" />
          </mxGeometry>
        </mxCell>
        <mxCell id="gft17bMY0GECLjVTUZjr-360" value="" style="endArrow=none;html=1;rounded=0;strokeWidth=3;" edge="1" parent="1">
          <mxGeometry width="50" height="50" relative="1" as="geometry">
            <mxPoint x="890" y="630" as="sourcePoint" />
            <mxPoint x="890" y="660" as="targetPoint" />
          </mxGeometry>
        </mxCell>
        <mxCell id="gft17bMY0GECLjVTUZjr-361" value="" style="endArrow=none;html=1;rounded=0;strokeWidth=3;" edge="1" parent="1">
          <mxGeometry width="50" height="50" relative="1" as="geometry">
            <mxPoint x="930" y="629" as="sourcePoint" />
            <mxPoint x="930" y="659" as="targetPoint" />
          </mxGeometry>
        </mxCell>
        <mxCell id="gft17bMY0GECLjVTUZjr-362" value="" style="endArrow=none;html=1;rounded=0;strokeWidth=3;" edge="1" parent="1">
          <mxGeometry width="50" height="50" relative="1" as="geometry">
            <mxPoint x="810" y="659" as="sourcePoint" />
            <mxPoint x="890" y="659" as="targetPoint" />
          </mxGeometry>
        </mxCell>
        <mxCell id="gft17bMY0GECLjVTUZjr-363" value="" style="endArrow=none;html=1;rounded=0;strokeWidth=3;" edge="1" parent="1">
          <mxGeometry width="50" height="50" relative="1" as="geometry">
            <mxPoint x="930" y="658" as="sourcePoint" />
            <mxPoint x="990" y="658" as="targetPoint" />
          </mxGeometry>
        </mxCell>
        <mxCell id="gft17bMY0GECLjVTUZjr-364" value="" style="endArrow=none;html=1;rounded=0;strokeWidth=3;" edge="1" parent="1">
          <mxGeometry width="50" height="50" relative="1" as="geometry">
            <mxPoint x="990" y="659" as="sourcePoint" />
            <mxPoint x="990" y="699" as="targetPoint" />
          </mxGeometry>
        </mxCell>
        <mxCell id="gft17bMY0GECLjVTUZjr-365" value="" style="endArrow=none;html=1;rounded=0;strokeWidth=3;" edge="1" parent="1">
          <mxGeometry width="50" height="50" relative="1" as="geometry">
            <mxPoint x="970" y="699" as="sourcePoint" />
            <mxPoint x="1010" y="699" as="targetPoint" />
          </mxGeometry>
        </mxCell>
        <mxCell id="gft17bMY0GECLjVTUZjr-366" value="" style="endArrow=none;html=1;rounded=0;strokeWidth=3;" edge="1" parent="1">
          <mxGeometry width="50" height="50" relative="1" as="geometry">
            <mxPoint x="970" y="709.5" as="sourcePoint" />
            <mxPoint x="1010" y="709.5" as="targetPoint" />
          </mxGeometry>
        </mxCell>
        <mxCell id="gft17bMY0GECLjVTUZjr-367" value="" style="endArrow=none;html=1;rounded=0;strokeWidth=3;" edge="1" parent="1" target="gft17bMY0GECLjVTUZjr-368">
          <mxGeometry width="50" height="50" relative="1" as="geometry">
            <mxPoint x="990" y="710" as="sourcePoint" />
            <mxPoint x="990" y="750" as="targetPoint" />
          </mxGeometry>
        </mxCell>
        <mxCell id="gft17bMY0GECLjVTUZjr-368" value="" style="triangle;whiteSpace=wrap;html=1;direction=south;strokeWidth=3;" vertex="1" parent="1">
          <mxGeometry x="970" y="740" width="40" height="20" as="geometry" />
        </mxCell>
        <mxCell id="gft17bMY0GECLjVTUZjr-370" value="&lt;b&gt;WORDLINE&lt;/b&gt;" style="text;html=1;align=center;verticalAlign=middle;whiteSpace=wrap;rounded=0;" vertex="1" parent="1">
          <mxGeometry x="880" y="550" width="60" height="30" as="geometry" />
        </mxCell>
        <mxCell id="gft17bMY0GECLjVTUZjr-371" value="&lt;b&gt;BITLINE&lt;/b&gt;" style="text;html=1;align=center;verticalAlign=middle;whiteSpace=wrap;rounded=0;" vertex="1" parent="1">
          <mxGeometry x="780" y="777" width="60" height="30" as="geometry" />
        </mxCell>
      </root>
    </mxGraphModel>
  </diagram>
</mxfile>
